<?xml version="1.0" standalone="no"?>
<!DOCTYPE svg PUBLIC "-//W3C//DTD SVG 20010904//EN"
 "http://www.w3.org/TR/2001/REC-SVG-20010904/DTD/svg10.dtd">
<svg version="1.0" xmlns="http://www.w3.org/2000/svg"
 width="700.000000pt" height="700.000000pt" viewBox="0 0 700.000000 700.000000"
 preserveAspectRatio="xMidYMid meet">
<metadata>
Created by potrace 1.14, written by Peter Selinger 2001-2017
</metadata>
<g transform="translate(0.000000,700.000000) scale(0.100000,-0.100000)"
fill="#000000" stroke="none">
<path d="M3600 6405 c-340 -57 -639 -211 -874 -450 -63 -63 -176 -204 -176
-217 0 -3 24 -12 53 -18 28 -7 102 -31 162 -52 441 -161 804 -462 1037 -863
77 -131 176 -361 194 -449 2 -10 8 -33 13 -50 5 -17 15 -56 20 -86 6 -30 14
-66 16 -80 3 -14 8 -51 11 -82 3 -32 7 -68 10 -80 6 -32 6 -283 -1 -343 -9
-81 -20 -157 -30 -205 -3 -14 -8 -38 -11 -54 -2 -16 -7 -33 -10 -38 -15 -23
157 10 316 61 143 46 354 159 459 246 219 179 368 375 472 614 36 84 82 230
94 296 2 17 7 41 10 55 19 93 25 321 11 440 -39 346 -211 693 -461 933 -33 32
-94 83 -135 115 -41 31 -76 60 -78 65 -2 4 -7 7 -12 7 -4 0 -37 17 -71 38
-153 92 -330 156 -549 197 -67 13 -393 13 -470 0z"/>
<path d="M1960 5363 c-385 -59 -673 -202 -930 -462 -167 -169 -289 -368 -364
-592 -34 -100 -41 -129 -52 -194 -3 -16 -7 -36 -9 -43 -9 -25 -19 -169 -19
-262 1 -146 13 -240 49 -383 31 -121 49 -166 122 -314 96 -192 256 -385 432
-518 l74 -56 34 113 c63 207 146 380 264 553 90 132 114 161 239 285 298 299
653 478 1095 555 181 31 480 24 672 -16 53 -10 98 -19 100 -19 5 0 -1 66 -11
116 -13 66 -54 200 -83 274 -38 93 -120 253 -134 258 -5 2 -9 8 -9 14 0 15
-120 165 -187 233 -105 107 -239 210 -363 277 -124 68 -356 149 -468 164 -26
3 -56 9 -67 11 -24 7 -350 11 -385 6z"/>
<path d="M5735 4438 c-2 -7 -24 -74 -48 -148 -25 -74 -63 -174 -85 -223 -110
-236 -293 -482 -478 -641 -118 -102 -124 -106 -215 -167 -335 -224 -718 -338
-1119 -333 -159 2 -195 6 -433 50 l-29 5 6 -51 c3 -29 8 -55 10 -58 2 -4 7
-23 10 -42 8 -53 40 -157 71 -235 181 -456 564 -795 1045 -924 41 -11 93 -23
115 -26 22 -3 65 -9 95 -14 56 -10 343 -7 415 4 118 18 296 72 414 127 570
263 923 835 905 1463 -4 123 -21 230 -59 375 -33 128 -130 330 -215 453 -34
48 -102 130 -151 181 -104 110 -247 224 -254 204z"/>
<path d="M2824 3644 c-118 -27 -240 -70 -349 -126 -92 -46 -253 -152 -306
-200 -20 -18 -54 -49 -76 -68 -33 -31 -118 -127 -173 -196 -37 -46 -114 -176
-150 -250 -141 -297 -189 -640 -130 -944 6 -30 13 -68 16 -83 11 -66 79 -249
125 -341 74 -146 161 -268 279 -386 121 -122 145 -143 255 -215 165 -108 390
-201 560 -229 17 -3 46 -8 65 -11 78 -14 303 -20 370 -11 14 2 48 7 75 10 66
9 225 44 250 55 11 5 43 17 70 26 160 54 378 189 523 322 75 69 222 241 222
260 0 6 -28 18 -62 28 -317 88 -616 256 -843 474 -267 256 -463 586 -549 926
-23 90 -44 202 -53 275 -10 83 -10 378 0 450 15 115 35 222 44 248 7 18 -40
14 -163 -14z"/>
</g>
</svg>
